<svg width="24" height="24" viewBox="0 0 24 24" fill="none" xmlns="http://www.w3.org/2000/svg">
<g clip-path="url(#clip0_816_322)">
<path d="M0.923077 6.46154C1.16789 6.46154 1.40268 6.36429 1.57579 6.19118C1.7489 6.01806 1.84615 5.78328 1.84615 5.53846V1.84615H5.53846C5.78328 1.84615 6.01806 1.7489 6.19118 1.57579C6.36429 1.40268 6.46154 1.16789 6.46154 0.923077C6.46154 0.678262 6.36429 0.443473 6.19118 0.270363C6.01806 0.0972525 5.78328 0 5.53846 0L1.84615 0C1.35667 0.000488748 0.887381 0.195151 0.541266 0.541266C0.195151 0.887381 0.000488748 1.35667 0 1.84615L0 5.53846C0 5.78328 0.0972525 6.01806 0.270363 6.19118C0.443473 6.36429 0.678262 6.46154 0.923077 6.46154Z" fill="black"/>
<path d="M22.1535 0H18.4612C18.2163 0 17.9816 0.0972525 17.8084 0.270363C17.6353 0.443473 17.5381 0.678262 17.5381 0.923077C17.5381 1.16789 17.6353 1.40268 17.8084 1.57579C17.9816 1.7489 18.2163 1.84615 18.4612 1.84615H22.1535V5.53846C22.1535 5.78328 22.2507 6.01806 22.4238 6.19118C22.5969 6.36429 22.8317 6.46154 23.0765 6.46154C23.3214 6.46154 23.5562 6.36429 23.7293 6.19118C23.9024 6.01806 23.9996 5.78328 23.9996 5.53846V1.84615C23.9991 1.35667 23.8045 0.887381 23.4584 0.541266C23.1122 0.195151 22.643 0.000488748 22.1535 0V0Z" fill="black"/>
<path d="M23.0765 17.5381C22.8317 17.5381 22.5969 17.6353 22.4238 17.8084C22.2507 17.9816 22.1535 18.2163 22.1535 18.4612V22.1535H18.4612C18.2163 22.1535 17.9816 22.2507 17.8084 22.4238C17.6353 22.5969 17.5381 22.8317 17.5381 23.0765C17.5381 23.3214 17.6353 23.5562 17.8084 23.7293C17.9816 23.9024 18.2163 23.9996 18.4612 23.9996H22.1535C22.643 23.9991 23.1122 23.8045 23.4584 23.4584C23.8045 23.1122 23.9991 22.643 23.9996 22.1535V18.4612C23.9996 18.2163 23.9024 17.9816 23.7293 17.8084C23.5562 17.6353 23.3214 17.5381 23.0765 17.5381Z" fill="black"/>
<path d="M5.53846 22.1535H1.84615V18.4612C1.84615 18.2163 1.7489 17.9816 1.57579 17.8084C1.40268 17.6353 1.16789 17.5381 0.923077 17.5381C0.678262 17.5381 0.443473 17.6353 0.270363 17.8084C0.0972525 17.9816 0 18.2163 0 18.4612L0 22.1535C0.000488748 22.643 0.195151 23.1122 0.541266 23.4584C0.887381 23.8045 1.35667 23.9991 1.84615 23.9996H5.53846C5.78328 23.9996 6.01806 23.9024 6.19118 23.7293C6.36429 23.5562 6.46154 23.3214 6.46154 23.0765C6.46154 22.8317 6.36429 22.5969 6.19118 22.4238C6.01806 22.2507 5.78328 22.1535 5.53846 22.1535Z" fill="black"/>
<path d="M9.26893 4.61523H6.42308C5.94372 4.6156 5.4841 4.80619 5.14515 5.14515C4.80619 5.4841 4.6156 5.94372 4.61523 6.42308V9.26893C4.6156 9.74829 4.80619 10.2079 5.14515 10.5469C5.4841 10.8858 5.94372 11.0764 6.42308 11.0768H9.26893C9.74829 11.0764 10.2079 10.8858 10.5469 10.5469C10.8858 10.2079 11.0764 9.74829 11.0768 9.26893V6.42308C11.0764 5.94372 10.8858 5.4841 10.5469 5.14515C10.2079 4.80619 9.74829 4.6156 9.26893 4.61523ZM9.23062 9.23108L6.46139 9.26893L6.42308 6.46139L9.23062 6.42308V9.23108Z" fill="black"/>
<path d="M9.26893 12.9229H6.42308C5.94372 12.9232 5.4841 13.1138 5.14515 13.4528C4.80619 13.7917 4.6156 14.2513 4.61523 14.7307V17.5765C4.6156 18.0559 4.80619 18.5155 5.14515 18.8545C5.4841 19.1934 5.94372 19.384 6.42308 19.3844H9.26893C9.74829 19.384 10.2079 19.1934 10.5469 18.8545C10.8858 18.5155 11.0764 18.0559 11.0768 17.5765V14.7307C11.0764 14.2513 10.8858 13.7917 10.5469 13.4528C10.2079 13.1138 9.74829 12.9232 9.26893 12.9229ZM9.23062 17.5382L6.46139 17.5761L6.42308 14.769L9.23062 14.7307V17.5382Z" fill="black"/>
<path d="M14.7307 11.0768H17.5765C18.0559 11.0764 18.5155 10.8858 18.8545 10.5469C19.1934 10.2079 19.384 9.74829 19.3844 9.26893V6.42308C19.384 5.94372 19.1934 5.4841 18.8545 5.14515C18.5155 4.80619 18.0559 4.6156 17.5765 4.61523H14.7307C14.2513 4.6156 13.7917 4.80619 13.4528 5.14515C13.1138 5.4841 12.9232 5.94372 12.9229 6.42308V9.26893C12.9232 9.74829 13.1138 10.2079 13.4528 10.5469C13.7917 10.8858 14.2513 11.0764 14.7307 11.0768ZM17.5382 6.42308V9.23108L14.769 9.26893L14.7307 6.46139L17.5382 6.42308Z" fill="black"/>
<path d="M13.8459 12.9229C13.6011 12.9229 13.3663 13.0201 13.1932 13.1932C13.0201 13.3663 12.9229 13.6011 12.9229 13.8459C12.9229 14.0907 13.0201 14.3255 13.1932 14.4986C13.3663 14.6718 13.6011 14.769 13.8459 14.769H14.769V13.8459C14.769 13.6011 14.6718 13.3663 14.4986 13.1932C14.3255 13.0201 14.0907 12.9229 13.8459 12.9229Z" fill="black"/>
<path d="M19.3842 13.8459C19.3842 13.6011 19.287 13.3663 19.1139 13.1932C18.9408 13.0201 18.706 12.9229 18.4612 12.9229C18.2163 12.9229 17.9816 13.0201 17.8084 13.1932C17.6353 13.3663 17.5381 13.6011 17.5381 13.8459V14.769H18.4612C18.706 14.769 18.9408 14.6718 19.1139 14.4986C19.287 14.3255 19.3842 14.0907 19.3842 13.8459Z" fill="black"/>
<path d="M18.4612 19.3842C18.706 19.3842 18.9408 19.287 19.1139 19.1139C19.287 18.9408 19.3842 18.706 19.3842 18.4612C19.3842 18.2163 19.287 17.9816 19.1139 17.8084C18.9408 17.6353 18.706 17.5381 18.4612 17.5381H17.5381V18.4612C17.5381 18.706 17.6353 18.9408 17.8084 19.1139C17.9816 19.287 18.2163 19.3842 18.4612 19.3842Z" fill="black"/>
<path d="M17.5388 14.7695H14.7695V17.5388H17.5388V14.7695Z" fill="black"/>
<path d="M12.9229 18.4612C12.9229 18.706 13.0201 18.9408 13.1932 19.1139C13.3663 19.287 13.6011 19.3842 13.8459 19.3842C14.0907 19.3842 14.3255 19.287 14.4986 19.1139C14.6718 18.9408 14.769 18.706 14.769 18.4612V17.5381H13.8459C13.6011 17.5381 13.3663 17.6353 13.1932 17.8084C13.0201 17.9816 12.9229 18.2163 12.9229 18.4612Z" fill="black"/>
</g>
<defs>
<clipPath id="clip0_816_322">
<rect width="24" height="24" fill="white"/>
</clipPath>
</defs>
</svg>
