<svg width="19" height="19" viewBox="0 0 19 19" fill="none" xmlns="http://www.w3.org/2000/svg">
<path d="M1.05558 4.22225H11.0834C11.2933 4.22225 11.4947 4.13884 11.6432 3.99038C11.7916 3.84191 11.875 3.64055 11.875 3.43058C11.875 3.22062 11.7916 3.01926 11.6432 2.87079C11.4947 2.72232 11.2933 2.63892 11.0834 2.63892H1.05558C0.84562 2.63892 0.644256 2.72232 0.49579 2.87079C0.347324 3.01926 0.263916 3.22062 0.263916 3.43058C0.263916 3.64055 0.347324 3.84191 0.49579 3.99038C0.644256 4.13884 0.84562 4.22225 1.05558 4.22225V4.22225Z" fill="black"/>
<path d="M13.9861 6.58546C14.1929 6.58545 14.3912 6.50329 14.5375 6.35705C14.6837 6.21081 14.7659 6.01248 14.7659 5.80567V4.22234H17.9444C18.1544 4.22234 18.3558 4.13893 18.5042 3.99046C18.6527 3.842 18.7361 3.64063 18.7361 3.43067C18.7361 3.22071 18.6527 3.01934 18.5042 2.87088C18.3558 2.72241 18.1544 2.639 17.9444 2.639H14.7659V1.05567C14.7659 0.848857 14.6837 0.650514 14.5375 0.504275C14.3912 0.358035 14.1929 0.275879 13.9861 0.275879C13.7793 0.275879 13.5809 0.358035 13.4347 0.504275C13.2885 0.650514 13.2063 0.848857 13.2063 1.05567V5.80567C13.2063 6.01248 13.2885 6.21081 13.4347 6.35705C13.5809 6.50329 13.7793 6.58545 13.9861 6.58546V6.58546Z" fill="black"/>
<path d="M17.9444 8.46313H7.91667C7.7067 8.46313 7.50534 8.54654 7.35687 8.69501C7.20841 8.84347 7.125 9.04484 7.125 9.2548C7.125 9.46476 7.20841 9.66613 7.35687 9.81459C7.50534 9.96306 7.7067 10.0465 7.91667 10.0465H17.9444C18.1544 10.0465 18.3558 9.96306 18.5042 9.81459C18.6527 9.66613 18.7361 9.46476 18.7361 9.2548C18.7361 9.04484 18.6527 8.84347 18.5042 8.69501C18.3558 8.54654 18.1544 8.46313 17.9444 8.46313Z" fill="black"/>
<path d="M9.27065 11.887C9.06385 11.887 8.86551 11.9691 8.71927 12.1154C8.57304 12.2616 8.49088 12.4599 8.49086 12.6668V14.2563H1.05558C0.84562 14.2563 0.644256 14.3397 0.49579 14.4881C0.347324 14.6366 0.263916 14.838 0.263916 15.0479C0.263916 15.2579 0.347324 15.4593 0.49579 15.6077C0.644256 15.7562 0.84562 15.8396 1.05558 15.8396H8.49086V17.4168C8.49256 17.6225 8.57546 17.8192 8.72152 17.964C8.86758 18.1089 9.06497 18.1902 9.27068 18.1902C9.4764 18.1902 9.67378 18.1089 9.81984 17.964C9.9659 17.8192 10.0488 17.6225 10.0505 17.4168V12.6668C10.0505 12.4599 9.9683 12.2616 9.82205 12.1154C9.67581 11.9691 9.47747 11.887 9.27065 11.887V11.887Z" fill="black"/>
<path d="M17.9444 14.2485H12.1389C11.928 14.2502 11.7263 14.3352 11.5778 14.485C11.4293 14.6347 11.3459 14.837 11.3459 15.0479C11.3459 15.2588 11.4293 15.4612 11.5778 15.6109C11.7263 15.7606 11.928 15.8456 12.1389 15.8473H17.9444C18.1553 15.8456 18.357 15.7606 18.5055 15.6109C18.654 15.4612 18.7374 15.2588 18.7374 15.0479C18.7374 14.837 18.654 14.6347 18.5055 14.485C18.357 14.3352 18.1553 14.2502 17.9444 14.2485V14.2485Z" fill="black"/>
<path d="M1.05558 10.0277H4.22225V11.611C4.22225 11.821 4.30566 12.0223 4.45412 12.1708C4.60259 12.3193 4.80395 12.4027 5.01392 12.4027C5.22388 12.4027 5.42524 12.3193 5.57371 12.1708C5.72218 12.0223 5.80558 11.821 5.80558 11.611V6.861C5.80558 6.65104 5.72218 6.44968 5.57371 6.30121C5.42524 6.15274 5.22388 6.06934 5.01392 6.06934C4.80395 6.06934 4.60259 6.15274 4.45412 6.30121C4.30566 6.44968 4.22225 6.65104 4.22225 6.861V8.44434H1.05558C0.84562 8.44434 0.644256 8.52774 0.49579 8.67621C0.347324 8.82468 0.263916 9.02604 0.263916 9.236C0.263916 9.44597 0.347324 9.64733 0.49579 9.79579C0.644256 9.94426 0.84562 10.0277 1.05558 10.0277V10.0277Z" fill="black"/>
</svg>
